<mxfile host="app.diagrams.net" modified="2023-04-24T13:07:58.461Z" agent="Mozilla/5.0 (Macintosh; Intel Mac OS X 10_15_7) AppleWebKit/537.36 (KHTML, like Gecko) Chrome/112.0.0.0 Safari/537.36" etag="SdgV-l3lOULby84xLQTp" version="21.1.2">
  <diagram name="ページ1" id="sRmaoOlEm64ONSSTu1jG">
    <mxGraphModel dx="1242" dy="832" grid="1" gridSize="10" guides="1" tooltips="1" connect="1" arrows="1" fold="1" page="1" pageScale="1" pageWidth="827" pageHeight="1169" math="0" shadow="0">
      <root>
        <mxCell id="0" />
        <mxCell id="1" parent="0" />
        <mxCell id="91-crwCGvRFBWFTtSziR-1" value="&lt;b&gt;ユーザー&lt;/b&gt;" style="shape=umlActor;verticalLabelPosition=bottom;verticalAlign=top;html=1;outlineConnect=0;" vertex="1" parent="1">
          <mxGeometry x="40" y="230" width="30" height="60" as="geometry" />
        </mxCell>
        <mxCell id="91-crwCGvRFBWFTtSziR-2" value="" style="ellipse;shape=cloud;whiteSpace=wrap;html=1;fillColor=#dae8fc;strokeColor=#6c8ebf;" vertex="1" parent="1">
          <mxGeometry x="410" y="60" width="410" height="360" as="geometry" />
        </mxCell>
        <mxCell id="91-crwCGvRFBWFTtSziR-3" value="ブロックチェーンネットワーク" style="text;html=1;strokeColor=none;fillColor=none;align=center;verticalAlign=middle;whiteSpace=wrap;rounded=0;fontStyle=1;fontSize=15;" vertex="1" parent="1">
          <mxGeometry x="490" y="150" width="240" height="30" as="geometry" />
        </mxCell>
        <mxCell id="91-crwCGvRFBWFTtSziR-5" value="エントリーポイント&lt;br&gt;コントラクト" style="rounded=0;whiteSpace=wrap;html=1;fontStyle=1" vertex="1" parent="1">
          <mxGeometry x="480" y="230" width="120" height="60" as="geometry" />
        </mxCell>
        <mxCell id="91-crwCGvRFBWFTtSziR-6" value="Accountコントラクト&lt;br&gt;(ContractWallet)" style="rounded=0;whiteSpace=wrap;html=1;fontStyle=1" vertex="1" parent="1">
          <mxGeometry x="637" y="280" width="130" height="60" as="geometry" />
        </mxCell>
        <mxCell id="91-crwCGvRFBWFTtSziR-7" value="PayMsater&lt;br&gt;コントラクト" style="rounded=0;whiteSpace=wrap;html=1;fontStyle=1" vertex="1" parent="1">
          <mxGeometry x="637" y="190" width="120" height="60" as="geometry" />
        </mxCell>
        <mxCell id="91-crwCGvRFBWFTtSziR-8" value="" style="endArrow=none;html=1;rounded=0;entryX=0;entryY=0.5;entryDx=0;entryDy=0;exitX=1;exitY=0.5;exitDx=0;exitDy=0;" edge="1" parent="1" source="91-crwCGvRFBWFTtSziR-5" target="91-crwCGvRFBWFTtSziR-7">
          <mxGeometry width="50" height="50" relative="1" as="geometry">
            <mxPoint x="370" y="230" as="sourcePoint" />
            <mxPoint x="420" y="180" as="targetPoint" />
          </mxGeometry>
        </mxCell>
        <mxCell id="91-crwCGvRFBWFTtSziR-9" value="" style="endArrow=none;html=1;rounded=0;entryX=0;entryY=0.5;entryDx=0;entryDy=0;exitX=1;exitY=0.5;exitDx=0;exitDy=0;" edge="1" parent="1" source="91-crwCGvRFBWFTtSziR-5" target="91-crwCGvRFBWFTtSziR-6">
          <mxGeometry width="50" height="50" relative="1" as="geometry">
            <mxPoint x="610" y="270" as="sourcePoint" />
            <mxPoint x="647" y="230" as="targetPoint" />
          </mxGeometry>
        </mxCell>
        <mxCell id="91-crwCGvRFBWFTtSziR-10" value="フロント&lt;br&gt;エンド" style="rounded=0;whiteSpace=wrap;html=1;fontStyle=1;fillColor=#e1d5e7;strokeColor=#9673a6;" vertex="1" parent="1">
          <mxGeometry x="90" y="230" width="80" height="60" as="geometry" />
        </mxCell>
        <mxCell id="91-crwCGvRFBWFTtSziR-11" value="API&lt;br&gt;サーバー&lt;br&gt;(bundler)" style="rounded=0;whiteSpace=wrap;html=1;fontStyle=1;fillColor=#d5e8d4;strokeColor=#82b366;" vertex="1" parent="1">
          <mxGeometry x="272" y="222" width="90" height="70" as="geometry" />
        </mxCell>
        <mxCell id="91-crwCGvRFBWFTtSziR-12" value="" style="endArrow=classic;html=1;rounded=0;exitX=1;exitY=0.5;exitDx=0;exitDy=0;entryX=0.16;entryY=0.55;entryDx=0;entryDy=0;entryPerimeter=0;" edge="1" parent="1" source="91-crwCGvRFBWFTtSziR-11" target="91-crwCGvRFBWFTtSziR-2">
          <mxGeometry width="50" height="50" relative="1" as="geometry">
            <mxPoint x="370" y="230" as="sourcePoint" />
            <mxPoint x="420" y="180" as="targetPoint" />
          </mxGeometry>
        </mxCell>
        <mxCell id="91-crwCGvRFBWFTtSziR-13" value="AA システム構成図" style="text;html=1;strokeColor=none;fillColor=none;align=center;verticalAlign=middle;whiteSpace=wrap;rounded=0;fontStyle=1;fontSize=21;" vertex="1" parent="1">
          <mxGeometry x="20" y="50" width="240" height="30" as="geometry" />
        </mxCell>
        <mxCell id="91-crwCGvRFBWFTtSziR-15" value="" style="endArrow=classic;html=1;rounded=0;exitX=1;exitY=0.5;exitDx=0;exitDy=0;" edge="1" parent="1">
          <mxGeometry width="50" height="50" relative="1" as="geometry">
            <mxPoint x="170" y="259.5" as="sourcePoint" />
            <mxPoint x="270" y="260" as="targetPoint" />
          </mxGeometry>
        </mxCell>
        <mxCell id="91-crwCGvRFBWFTtSziR-16" value="・tx send&lt;br&gt;・valivate tx" style="text;html=1;strokeColor=none;fillColor=none;align=left;verticalAlign=middle;whiteSpace=wrap;rounded=0;fontStyle=1;fontSize=15;" vertex="1" parent="1">
          <mxGeometry x="362" y="220" width="110" height="30" as="geometry" />
        </mxCell>
        <mxCell id="91-crwCGvRFBWFTtSziR-17" value="user op を送信" style="text;html=1;strokeColor=none;fillColor=none;align=left;verticalAlign=middle;whiteSpace=wrap;rounded=0;fontStyle=1;fontSize=15;" vertex="1" parent="1">
          <mxGeometry x="170" y="220" width="110" height="30" as="geometry" />
        </mxCell>
        <mxCell id="91-crwCGvRFBWFTtSziR-18" value="操作" style="text;html=1;strokeColor=none;fillColor=none;align=left;verticalAlign=middle;whiteSpace=wrap;rounded=0;fontStyle=1;fontSize=15;" vertex="1" parent="1">
          <mxGeometry x="70" y="205" width="40" height="30" as="geometry" />
        </mxCell>
        <mxCell id="91-crwCGvRFBWFTtSziR-19" value="&lt;b&gt;&lt;font style=&quot;font-size: 13px;&quot;&gt;The Graph&lt;/font&gt;&lt;/b&gt;" style="shape=cylinder3;whiteSpace=wrap;html=1;boundedLbl=1;backgroundOutline=1;size=15;fillColor=#f5f5f5;strokeColor=#666666;fontColor=#333333;" vertex="1" parent="1">
          <mxGeometry x="270" y="340" width="98.5" height="80" as="geometry" />
        </mxCell>
        <mxCell id="91-crwCGvRFBWFTtSziR-20" value="" style="endArrow=classic;html=1;rounded=0;exitX=0;exitY=0.5;exitDx=0;exitDy=0;entryX=1;entryY=0.5;entryDx=0;entryDy=0;exitPerimeter=0;" edge="1" parent="1" source="91-crwCGvRFBWFTtSziR-19" target="91-crwCGvRFBWFTtSziR-10">
          <mxGeometry width="50" height="50" relative="1" as="geometry">
            <mxPoint x="150" y="360" as="sourcePoint" />
            <mxPoint x="250" y="360.5" as="targetPoint" />
          </mxGeometry>
        </mxCell>
        <mxCell id="91-crwCGvRFBWFTtSziR-21" value="データ取得" style="text;html=1;strokeColor=none;fillColor=none;align=left;verticalAlign=middle;whiteSpace=wrap;rounded=0;fontStyle=1;fontSize=15;" vertex="1" parent="1">
          <mxGeometry x="150" y="320" width="90" height="30" as="geometry" />
        </mxCell>
        <mxCell id="91-crwCGvRFBWFTtSziR-22" value="" style="endArrow=classic;html=1;rounded=0;exitX=1;exitY=0.5;exitDx=0;exitDy=0;entryX=0.13;entryY=0.77;entryDx=0;entryDy=0;exitPerimeter=0;entryPerimeter=0;" edge="1" parent="1" source="91-crwCGvRFBWFTtSziR-19" target="91-crwCGvRFBWFTtSziR-2">
          <mxGeometry width="50" height="50" relative="1" as="geometry">
            <mxPoint x="490" y="480" as="sourcePoint" />
            <mxPoint x="390" y="360" as="targetPoint" />
          </mxGeometry>
        </mxCell>
        <mxCell id="91-crwCGvRFBWFTtSziR-23" value="インデックス化" style="text;html=1;strokeColor=none;fillColor=none;align=left;verticalAlign=middle;whiteSpace=wrap;rounded=0;fontStyle=1;fontSize=15;" vertex="1" parent="1">
          <mxGeometry x="400" y="365" width="110" height="30" as="geometry" />
        </mxCell>
      </root>
    </mxGraphModel>
  </diagram>
</mxfile>
